<?xml version="1.0" encoding="utf-8"?>
<COLLADA version="1.5.0" xmlns="http://www.collada.org/2008/03/COLLADASchema">
  <asset>
    <contributor />
    <unit meter="1" />
  </asset>
  <library_lights />
  <library_materials />
  <library_effects />
  <library_cameras />
  <library_geometries>
    <geometry id="mesh_1">
      <mesh>
        <source id="mesh_1-position" name="position">
          <float_array id="mesh_1-position-array" count="684">-120 218.34405517578125 187.14773559570312 -120 216.6862030029297 188.9183807373047 -120 235.7954559326172 185.7954559326172 -120 214.7646484375 190.39866638183594 -120 219.69482421875 185.13302612304688 -120 212.62960815429688 191.5498809814453 -120 220.70321655273438 182.92694091796875 -120 210.33694458007812 192.34193420410156 -120 221.3428497314453 180.58717346191406 -120 221.5970001220703 178.17489624023438 -120 221.45901489257812 175.75320434570312 -120 220.93251037597656 173.38540649414062 -120 220.03125 171.13343811035156 -120 218.77880859375 169.05616760253906 -120 325 162.85714721679688 -120 217.2079315185547 167.2079315185547 -120 325 50 -120 164.6446533203125 114.64466094970703 -120 275 1.4210854715202004E-14 -120 159.0424041748047 107.96814727783203 -120 161.69778442382812 111.42870330810547 -120 154.6846160888672 100.42023468017578 -120 156.69873046875 104.28932189941406 -120 151.70370483398438 92.23027038574219 -120 153.01536560058594 96.39032745361328 -120 150 79.28932189941406 -120 150.75961303710938 87.97173309326172 -120 150.1902618408203 83.64710998535156 -120 150 0 -175 164.6446533203125 114.64466094970703 -175 217.2079315185547 167.2079315185547 -175 218.77880859375 169.05616760253906 -175 220.03125 171.13343811035156 -175 220.93251037597656 173.38540649414062 -175 221.45901489257812 175.75320434570312 -175 221.5970001220703 178.17489624023438 -175 221.3428497314453 180.58717346191406 -175 220.70321655273438 182.92694091796875 -175 219.69482421875 185.13302612304688 -175 218.34405517578125 187.14773559570312 -175 216.6862030029297 188.9183807373047 -175 214.7646484375 190.39866638183594 -175 212.62960815429688 191.5498809814453 -175 210.33694458007812 192.34193420410156 -175 161.69778442382812 111.42870330810547 -175 159.0424041748047 107.96814727783203 -175 156.69873046875 104.28932189941406 -175 154.6846160888672 100.42023468017578 -175 153.01536560058594 96.39032745361328 -175 151.70370483398438 92.23027038574219 -175 150.75961303710938 87.97173309326172 -175 150.1902618408203 83.64710998535156 -175 150 79.28932189941406 70 375 150 120 235.7954559326172 185.7954559326172 120 325 162.85714721679688 175 210.33694458007812 192.34193420410156 120 210.33694458007812 192.34193420410156 175 180.55555725097656 200 -70 375 150 -175 180.55555725097656 200 -175 150 0 -120 -150 0 120 -275 0 -120 -275 2.842170943040401E-14 120 -150 2.6645352591003757E-14 120 150 2.6645352591003757E-14 175 150 3.885780586188048E-14 175 -150 3.885780586188048E-14 -175 -150 0 120 275 1.4210854715202004E-14 -70 375 100 120 325 50 70 375 100 -175 -210.33694458007812 192.34193420410156 -175 -218.34405517578125 187.14773559570312 -175 -216.6862030029297 188.9183807373047 -175 -214.7646484375 190.39866638183594 -175 -212.62960815429688 191.5498809814453 -175 -221.3428497314453 180.58717346191406 -175 -220.70321655273438 182.92694091796875 -175 -219.69482421875 185.13302612304688 -175 -221.5970001220703 178.17489624023438 -175 -220.93251037597656 173.38540649414062 -175 -221.45901489257812 175.75320434570312 -175 -220.03125 171.13343811035156 -175 -218.77880859375 169.05616760253906 -175 -217.2079315185547 167.2079315185547 -175 -180.55555725097656 200 -175 -164.6446533203125 114.64466094970703 -175 -161.69778442382812 111.42870330810547 -175 -159.0424041748047 107.96814727783203 -175 -154.6846160888672 100.42023468017578 -175 -156.69873046875 104.28932189941406 -175 -153.01536560058594 96.39032745361328 -175 -151.70370483398438 92.23027038574219 -175 -150.75961303710938 87.97173309326172 -175 -150.1902618408203 83.64710998535156 -175 -150 79.28932189941406 175 -180.55555725097656 200 175 -221.5970001220703 178.17489624023438 175 -218.34405517578125 187.14773559570312 175 -219.69482421875 185.13302612304688 175 -220.70321655273438 182.92694091796875 175 -221.3428497314453 180.58717346191406 175 -210.33694458007812 192.34193420410156 175 219.69482421875 185.13302612304688 175 216.6862030029297 188.9183807373047 175 214.7646484375 190.39866638183594 175 218.34405517578125 187.14773559570312 175 -220.03125 171.13343811035156 175 -221.45901489257812 175.75320434570312 175 -220.93251037597656 173.38540649414062 175 212.62960815429688 191.5498809814453 175 221.3428497314453 180.58717346191406 175 220.70321655273438 182.92694091796875 175 -217.2079315185547 167.2079315185547 175 -218.77880859375 169.05616760253906 175 221.45901489257812 175.75320434570312 175 221.5970001220703 178.17489624023438 175 220.93251037597656 173.38540649414062 175 -164.6446533203125 114.64466094970703 175 217.2079315185547 167.2079315185547 175 220.03125 171.13343811035156 175 218.77880859375 169.05616760253906 175 -161.69778442382812 111.42870330810547 175 -159.0424041748047 107.96814727783203 175 164.6446533203125 114.64466094970703 175 161.69778442382812 111.42870330810547 175 -156.69873046875 104.28932189941406 175 156.69873046875 104.28932189941406 175 159.0424041748047 107.96814727783203 175 -154.6846160888672 100.42023468017578 175 154.6846160888672 100.42023468017578 175 -153.01536560058594 96.39032745361328 175 153.01536560058594 96.39032745361328 175 -151.70370483398438 92.23027038574219 175 151.70370483398438 92.23027038574219 175 -150.75961303710938 87.97173309326172 175 150.75961303710938 87.97173309326172 175 -150.1902618408203 83.64710998535156 175 150.1902618408203 83.64710998535156 175 150 79.28932189941406 175 -150 79.28932189941406 175 -216.6862030029297 188.9183807373047 175 -212.62960815429688 191.5498809814453 175 -214.7646484375 190.39866638183594 120 212.62960815429688 191.5498809814453 120 214.7646484375 190.39866638183594 120 216.6862030029297 188.9183807373047 120 218.34405517578125 187.14773559570312 120 219.69482421875 185.13302612304688 120 220.70321655273438 182.92694091796875 120 221.3428497314453 180.58717346191406 120 221.5970001220703 178.17489624023438 120 221.45901489257812 175.75320434570312 120 220.93251037597656 173.38540649414062 120 220.03125 171.13343811035156 120 218.77880859375 169.05616760253906 120 217.2079315185547 167.2079315185547 120 164.6446533203125 114.64466094970703 120 161.69778442382812 111.42870330810547 120 159.0424041748047 107.96814727783203 120 156.69873046875 104.28932189941406 120 153.01536560058594 96.39032745361328 120 154.6846160888672 100.42023468017578 120 151.70370483398438 92.23027038574219 120 150.1902618408203 83.64710998535156 120 150.75961303710938 87.97173309326172 120 150 79.28932189941406 -120 -150 79.28932189941406 -120 -150.75961303710938 87.97173309326172 -120 -150.1902618408203 83.64710998535156 -120 -153.01536560058594 96.39032745361328 -120 -151.70370483398438 92.23027038574219 -120 -156.69873046875 104.28932189941406 -120 -154.6846160888672 100.42023468017578 -120 -161.69778442382812 111.42870330810547 -120 -159.0424041748047 107.96814727783203 -120 -164.6446533203125 114.64466094970703 -120 -325 50 -120 -217.2079315185547 167.2079315185547 -120 -218.77880859375 169.05616760253906 -120 -235.7954559326172 185.7954559326172 -120 -220.03125 171.13343811035156 -120 -220.93251037597656 173.38540649414062 -120 -221.45901489257812 175.75320434570312 -120 -221.5970001220703 178.17489624023438 -120 -221.3428497314453 180.58717346191406 -120 -220.70321655273438 182.92694091796875 -120 -219.69482421875 185.13302612304688 -120 -218.34405517578125 187.14773559570312 -120 -216.6862030029297 188.9183807373047 -120 -214.7646484375 190.39866638183594 -120 -212.62960815429688 191.5498809814453 -120 -210.33694458007812 192.34193420410156 -120 -325 162.85714721679688 120 -150 79.28932189941406 120 -325 50 70 -375 100 -70 -375 100 120 -151.70370483398438 92.23027038574219 120 -150.1902618408203 83.64710998535156 120 -150.75961303710938 87.97173309326172 120 -154.6846160888672 100.42023468017578 120 -153.01536560058594 96.39032745361328 120 -156.69873046875 104.28932189941406 120 -161.69778442382812 111.42870330810547 120 -159.0424041748047 107.96814727783203 120 -164.6446533203125 114.64466094970703 120 -217.2079315185547 167.2079315185547 120 -235.7954559326172 185.7954559326172 120 -212.62960815429688 191.5498809814453 120 -210.33694458007812 192.34193420410156 120 -214.7646484375 190.39866638183594 120 -216.6862030029297 188.9183807373047 120 -218.34405517578125 187.14773559570312 120 -219.69482421875 185.13302612304688 120 -220.70321655273438 182.92694091796875 120 -221.3428497314453 180.58717346191406 120 -221.5970001220703 178.17489624023438 120 -221.45901489257812 175.75320434570312 120 -220.93251037597656 173.38540649414062 120 -220.03125 171.13343811035156 120 -218.77880859375 169.05616760253906 120 -325 162.85714721679688 70 -375 150 -70 -375 150 </float_array>
          <technique_common>
            <accessor source="#mesh_1-position-array" count="228" stride="3">
              <param name="X" type="float" />
              <param name="Y" type="float" />
              <param name="Z" type="float" />
            </accessor>
          </technique_common>
        </source>
        <source id="mesh_1-normal" name="normal">
          <float_array id="mesh_1-normal-array" count="240">-1 0 0 0 0.7071067094802856 -0.7071067690849304 0 0.7619644403457642 -0.64761883020401 0 0.8563852906227112 -0.5163373351097107 0 0.9284094572067261 -0.3715587854385376 0 0.9761584401130676 -0.21705898642539978 0 0.9983806610107422 -0.05688658729195595 0 0.994495689868927 0.10477712005376816 0 0.9646050333976746 0.2636985778808594 0 0.9094905853271484 0.41572436690330505 0 0.8305957317352295 0.5568758249282837 0 0.7299746870994568 0.6834741234779358 0 0.6102718114852905 0.7921921014785767 0 0.47460392117500305 0.8801994919776917 0 0.32653579115867615 0.9451848864555359 0 0.7372788786888123 -0.6755885481834412 0 0.7933530807495117 -0.608761727809906 0 0.8433910608291626 -0.537300169467926 0 0.8870112895965576 -0.4617477059364319 0 0.9238789081573486 -0.3826850652694702 0 0.9537169933319092 -0.30070579051971436 0 0.9762961864471436 -0.21643893420696259 0 0.9914447665214539 -0.13052703440189362 0 0.9990482330322266 -0.04361863434314728 -1.0602530409187239E-07 0.24904102087020874 0.968492865562439 0 0.2490408718585968 0.9684929847717285 0 0.24904103577136993 0.9684929251670837 1.3253163899662468E-07 0.24904102087020874 0.9684929847717285 0 0.24904105067253113 0.9684929251670837 0 0.24904116988182068 0.9684929251670837 0 0.249040886759758 0.9684929847717285 0 0.2490408569574356 0.9684929251670837 0 1 0 -1.1842379546963194E-16 -2.2737368624290214E-16 -1 1.1102230246251565E-16 2.1316281596346973E-16 -1 2.220446049250313E-16 0 -1 1.1102230246251565E-16 0 -1 0 0 -1 0 -9.947598607690846E-17 -1 1.1102230246251565E-16 1.1368684312145107E-16 -1 -0.7071067690849304 0.7071067690849304 0 0 0.7071067690849304 -0.7071067690849304 0 0 1 1 0 0 0.7071067690849304 0.7071067690849304 0 0 -1 0 0 -0.7071067690849304 -0.7071067690849304 -1.5903796679594961E-07 -0.24904102087020874 0.9684929847717285 0 -0.2490408718585968 0.9684929847717285 0 -0.24904103577136993 0.9684929251670837 1.5903796679594961E-07 -0.24904102087020874 0.9684929847717285 0 -0.24904105067253113 0.9684929251670837 0 -0.24904116988182068 0.9684929251670837 0 -0.249040886759758 0.9684929847717285 0 -0.24904091656208038 0.9684929847717285 0 -0.7619644403457642 -0.64761883020401 0 -0.8563852906227112 -0.5163373351097107 0 -0.9284094572067261 -0.3715587854385376 0 -0.9761584401130676 -0.21705898642539978 0 -0.9983806610107422 -0.05688658729195595 0 -0.994495689868927 0.10477712005376816 0 -0.9646050333976746 0.2636985778808594 0 -0.9094905853271484 0.41572436690330505 0 -0.8305957317352295 0.5568758249282837 0 -0.7299746870994568 0.6834741234779358 0 -0.6102718114852905 0.7921921014785767 0 -0.47460392117500305 0.8801994919776917 0 -0.32653579115867615 0.9451848864555359 0 -0.7372788786888123 -0.6755885481834412 0 -0.7933530807495117 -0.608761727809906 0 -0.8433910608291626 -0.537300169467926 0 -0.8870112895965576 -0.4617477059364319 0 -0.9238789081573486 -0.3826850652694702 0 -0.9537169933319092 -0.30070579051971436 0 -0.9762961864471436 -0.21643893420696259 0 -0.9914447665214539 -0.13052703440189362 0 -0.9990482330322266 -0.04361863434314728 0 -0.7071067094802856 -0.7071067690849304 -0.7071067690849304 -0.7071067690849304 0 0.7071067690849304 -0.7071067690849304 0 </float_array>
          <technique_common>
            <accessor source="#mesh_1-normal-array" count="80" stride="3">
              <param name="X" type="float" />
              <param name="Y" type="float" />
              <param name="Z" type="float" />
            </accessor>
          </technique_common>
        </source>
        <vertices id="mesh_1-vertices">
          <input semantic="POSITION" source="#mesh_1-position" />
        </vertices>
        <triangles material="default" count="452">
          <input semantic="VERTEX" source="#mesh_1-vertices" offset="0" />
          <input semantic="NORMAL" source="#mesh_1-normal" offset="1" />
          <p>0 0 1 0 2 0 3 0 2 0 1 0 4 0 0 0 2 0 5 0 2 0 3 0 6 0 4 0 2 0 7 0 2 0 5 0 8 0 6 0 2 0 9 0 8 0 2 0 10 0 9 0 2 0 11 0 10 0 2 0 12 0 11 0 2 0 13 0 2 0 14 0 13 0 12 0 2 0 15 0 13 0 14 0 16 0 15 0 14 0 17 0 15 0 16 0 18 0 17 0 16 0 19 0 20 0 17 0 21 0 22 0 19 0 23 0 24 0 21 0 25 0 26 0 23 0 25 0 27 0 26 0 25 0 17 0 18 0 25 0 19 0 17 0 25 0 21 0 19 0 25 0 23 0 21 0 28 0 25 0 18 0 29 1 30 1 17 1 17 1 30 1 15 1 13 2 30 2 31 2 13 3 31 3 32 3 13 2 15 2 30 2 12 4 32 4 33 4 12 3 13 3 32 3 11 5 33 5 34 5 11 4 12 4 33 4 10 5 11 5 34 5 9 6 34 6 35 6 9 6 10 6 34 6 8 7 35 7 36 7 8 8 36 8 37 8 8 7 9 7 35 7 6 8 8 8 37 8 4 9 37 9 38 9 4 10 38 10 39 10 4 9 6 9 37 9 0 11 39 11 40 11 0 10 4 10 39 10 1 11 0 11 40 11 3 12 40 12 41 12 3 13 41 13 42 13 3 12 1 12 40 12 5 13 3 13 42 13 7 14 42 14 43 14 7 14 5 14 42 14 29 15 17 15 44 15 44 16 20 16 45 16 17 15 20 15 44 15 45 17 19 17 46 17 20 16 19 16 45 16 46 18 22 18 47 18 19 17 22 17 46 17 47 19 21 19 48 19 22 18 21 18 47 18 48 20 24 20 49 20 21 19 24 19 48 19 49 21 23 21 50 21 24 20 23 20 49 20 50 22 26 22 51 22 23 21 26 21 50 21 51 23 27 23 52 23 26 22 27 22 51 22 27 23 25 23 52 23 53 24 54 24 55 24 56 25 57 25 58 25 53 26 59 26 54 26 14 27 2 27 59 27 59 28 2 28 54 28 54 29 7 29 57 29 2 29 7 29 54 29 43 25 60 25 7 25 57 30 60 30 58 30 7 31 60 31 57 31 61 32 25 32 28 32 61 32 52 32 25 32 62 33 63 33 64 33 62 34 65 34 63 34 66 35 67 35 68 35 66 35 68 35 65 35 28 36 65 36 62 36 28 36 66 36 65 36 61 37 62 37 69 37 61 37 28 37 62 37 18 38 70 38 66 38 18 39 66 39 28 39 16 40 14 40 71 40 71 40 14 40 59 40 72 41 18 41 16 41 72 41 16 41 71 41 72 41 71 41 73 41 70 41 18 41 72 41 35 0 37 0 36 0 35 0 38 0 37 0 35 0 43 0 40 0 35 0 40 0 38 0 32 0 34 0 33 0 74 0 75 0 76 0 74 0 76 0 77 0 74 0 77 0 78 0 31 0 35 0 34 0 31 0 34 0 32 0 31 0 43 0 35 0 79 0 80 0 81 0 30 0 60 0 43 0 82 0 81 0 75 0 82 0 75 0 74 0 82 0 79 0 81 0 30 0 43 0 31 0 29 0 60 0 30 0 83 0 84 0 82 0 85 0 83 0 82 0 85 0 82 0 74 0 86 0 85 0 74 0 44 0 60 0 29 0 87 0 86 0 74 0 88 0 87 0 74 0 45 0 60 0 44 0 89 0 87 0 88 0 90 0 89 0 88 0 46 0 88 0 60 0 91 0 90 0 88 0 46 0 60 0 45 0 46 0 92 0 93 0 93 0 91 0 88 0 46 0 93 0 88 0 47 0 92 0 46 0 47 0 94 0 92 0 48 0 94 0 47 0 48 0 95 0 94 0 49 0 95 0 48 0 49 0 96 0 95 0 50 0 96 0 49 0 50 0 97 0 96 0 51 0 97 0 50 0 52 0 98 0 97 0 52 0 97 0 51 0 61 0 69 0 98 0 61 0 98 0 52 0 40 0 42 0 41 0 40 0 43 0 42 0 38 0 40 0 39 0 99 42 60 42 88 42 58 42 60 42 99 42 100 43 101 43 102 43 100 43 102 43 103 43 100 43 103 43 104 43 100 43 105 43 101 43 106 43 107 43 108 43 106 43 109 43 107 43 110 43 100 43 111 43 110 43 111 43 112 43 56 43 108 43 113 43 56 43 106 43 108 43 114 43 115 43 106 43 114 43 106 43 56 43 116 43 110 43 117 43 116 43 105 43 100 43 116 43 99 43 105 43 116 43 100 43 110 43 118 43 119 43 114 43 120 43 118 43 114 43 121 43 99 43 116 43 120 43 114 43 56 43 122 43 123 43 120 43 122 43 124 43 123 43 122 43 120 43 56 43 125 43 99 43 121 43 58 43 122 43 56 43 126 43 99 43 125 43 127 43 122 43 58 43 128 43 127 43 58 43 129 43 130 43 99 43 131 43 128 43 58 43 129 43 99 43 126 43 130 43 131 43 58 43 132 43 130 43 129 43 132 43 133 43 130 43 134 43 133 43 132 43 134 43 135 43 133 43 136 43 137 43 135 43 136 43 135 43 134 43 138 43 137 43 136 43 138 43 139 43 137 43 140 43 141 43 139 43 140 43 142 43 141 43 140 43 139 43 138 43 143 43 67 43 142 43 99 43 130 43 58 43 143 43 142 43 140 43 68 43 67 43 143 43 144 43 105 43 145 43 144 43 145 43 146 43 101 43 105 43 144 43 147 14 56 14 113 14 147 14 57 14 56 14 148 13 113 13 108 13 148 13 147 13 113 13 149 12 108 12 107 12 149 12 148 12 108 12 150 11 107 11 109 11 150 11 149 11 107 11 151 10 109 10 106 10 151 10 150 10 109 10 152 9 106 9 115 9 152 9 151 9 106 9 153 8 115 8 114 8 153 8 152 8 115 8 154 7 114 7 119 7 154 7 153 7 114 7 155 6 119 6 118 6 155 6 154 6 119 6 156 5 118 5 120 5 156 5 155 5 118 5 157 4 120 4 123 4 157 4 156 4 120 4 158 3 123 3 124 3 158 3 157 3 123 3 159 2 124 2 122 2 159 2 158 2 124 2 149 43 150 43 54 43 54 43 148 43 149 43 150 43 151 43 54 43 54 43 147 43 148 43 151 43 152 43 54 43 54 43 57 43 147 43 152 43 153 43 54 43 153 43 154 43 54 43 154 43 155 43 54 43 155 43 156 43 54 43 156 43 157 43 54 43 54 43 158 43 55 43 157 43 158 43 54 43 158 43 159 43 55 43 159 43 72 43 55 43 159 43 160 43 72 43 160 43 70 43 72 43 161 43 162 43 160 43 163 43 164 43 162 43 165 43 164 43 163 43 166 43 167 43 164 43 168 43 167 43 166 43 164 43 167 43 162 43 160 43 169 43 70 43 162 43 169 43 160 43 167 43 169 43 162 43 169 43 66 43 70 43 73 32 59 32 53 32 73 32 71 32 59 32 55 44 72 44 73 44 55 44 73 44 53 44 142 32 67 32 66 32 142 32 66 32 169 32 98 45 62 45 170 45 98 45 69 45 62 45 170 0 171 0 172 0 171 0 173 0 174 0 173 0 175 0 176 0 171 0 175 0 173 0 175 0 177 0 178 0 62 0 64 0 170 0 64 0 179 0 170 0 170 0 179 0 171 0 171 0 179 0 175 0 175 0 179 0 177 0 64 0 180 0 179 0 180 0 181 0 179 0 182 0 183 0 184 0 184 0 183 0 185 0 185 0 183 0 186 0 186 0 183 0 187 0 187 0 183 0 188 0 188 0 183 0 189 0 189 0 183 0 190 0 190 0 183 0 191 0 191 0 183 0 192 0 192 0 183 0 193 0 193 0 183 0 194 0 194 0 183 0 195 0 181 0 196 0 182 0 180 0 196 0 181 0 182 0 196 0 183 0 65 45 143 45 197 45 68 45 143 45 65 45 198 46 64 46 63 46 199 46 180 46 198 46 198 46 180 46 64 46 199 46 200 46 180 46 201 43 197 43 202 43 201 43 202 43 203 43 204 43 201 43 205 43 206 43 201 43 204 43 207 43 206 43 208 43 207 43 197 43 201 43 207 43 201 43 206 43 63 43 65 43 197 43 209 43 63 43 197 43 209 43 197 43 207 43 198 43 63 43 209 43 210 43 198 43 209 43 211 43 212 43 213 43 211 43 214 43 212 43 211 43 215 43 214 43 211 43 216 43 215 43 211 43 217 43 216 43 211 43 218 43 217 43 211 43 219 43 218 43 211 43 220 43 219 43 211 43 221 43 220 43 211 43 222 43 221 43 211 43 223 43 222 43 211 43 224 43 223 43 225 43 210 43 224 43 225 43 198 43 210 43 225 43 224 43 211 43 211 47 226 47 225 47 213 48 105 48 99 48 227 49 226 49 211 49 183 50 196 50 227 50 183 51 227 51 211 51 195 52 211 52 213 52 195 52 183 52 211 52 88 48 74 48 195 48 88 53 213 53 99 53 88 54 195 54 213 54 86 55 181 55 182 55 86 56 182 56 184 56 86 55 87 55 181 55 85 57 184 57 185 57 85 56 86 56 184 56 83 58 185 58 186 58 83 57 85 57 185 57 84 59 186 59 187 59 84 58 83 58 186 58 82 60 187 60 188 60 82 59 84 59 187 59 79 61 188 61 189 61 79 60 82 60 188 60 80 62 189 62 190 62 80 61 79 61 189 61 81 63 190 63 191 63 81 62 80 62 190 62 75 64 191 64 192 64 75 63 81 63 191 63 76 65 192 65 193 65 76 64 75 64 192 64 77 66 193 66 194 66 77 65 76 65 193 65 78 66 77 66 194 66 74 67 194 67 195 67 74 67 78 67 194 67 177 68 89 68 90 68 177 68 179 68 89 68 178 69 90 69 91 69 178 69 177 69 90 69 175 70 91 70 93 70 175 70 178 70 91 70 176 71 93 71 92 71 176 71 175 71 93 71 173 72 92 72 94 72 173 72 176 72 92 72 174 73 94 73 95 73 174 73 173 73 94 73 171 74 95 74 96 74 171 74 174 74 95 74 172 75 96 75 97 75 172 75 171 75 96 75 170 76 97 76 98 76 170 76 172 76 97 76 87 77 89 77 179 77 87 77 179 77 181 77 121 77 116 77 209 77 209 77 116 77 210 77 105 67 213 67 212 67 145 66 212 66 214 66 145 67 105 67 212 67 146 65 214 65 215 65 146 66 145 66 214 66 144 64 215 64 216 64 144 65 146 65 215 65 101 63 216 63 217 63 101 64 144 64 216 64 102 62 217 62 218 62 102 63 101 63 217 63 103 61 218 61 219 61 103 62 102 62 218 62 104 60 219 60 220 60 104 61 103 61 219 61 100 59 220 59 221 59 100 60 104 60 220 60 111 58 221 58 222 58 111 59 100 59 221 59 112 57 222 57 223 57 112 58 111 58 222 58 110 56 223 56 224 56 110 57 112 57 223 57 117 56 110 56 224 56 116 55 224 55 210 55 116 55 117 55 224 55 197 76 143 76 140 76 202 76 197 76 140 76 203 75 140 75 138 75 203 75 202 75 140 75 201 74 138 74 136 74 201 74 203 74 138 74 205 73 136 73 134 73 205 73 201 73 136 73 204 72 134 72 132 72 204 72 205 72 134 72 206 71 132 71 129 71 206 71 204 71 132 71 208 70 129 70 126 70 208 70 206 70 129 70 207 69 126 69 125 69 207 69 208 69 126 69 209 68 125 68 121 68 209 68 207 68 125 68 160 15 127 15 128 15 161 15 160 15 128 15 162 16 128 16 131 16 162 16 161 16 128 16 163 17 131 17 130 17 163 17 162 17 131 17 165 18 130 18 133 18 165 18 163 18 130 18 164 19 133 19 135 19 164 20 135 20 137 20 164 19 165 19 133 19 166 20 164 20 137 20 168 21 137 21 139 21 168 21 166 21 137 21 167 22 139 22 141 22 167 22 168 22 139 22 169 23 141 23 142 23 169 23 167 23 141 23 122 1 127 1 160 1 122 1 160 1 159 1 180 78 200 78 196 78 200 78 227 78 196 78 199 79 198 79 225 79 226 79 199 79 225 79 227 45 199 45 226 45 200 45 199 45 227 45</p>
        </triangles>
      </mesh>
    </geometry>
  </library_geometries>
  <library_images />
  <library_visual_scenes>
    <visual_scene id="Scene">
      <node id="node_1" sid="node_1" type="NODE">
        <matrix>1 0 0 0 0 1 0 0 0 0 1 0 0 0 0 1</matrix>
        <instance_geometry url="#mesh_1" />
      </node>
    </visual_scene>
  </library_visual_scenes>
  <library_animations />
  <scene>
    <instance_visual_scene url="#Scene" />
  </scene>
</COLLADA>